<?xml version="1.0" encoding="UTF-8"?>
<svg id="Capa_1" data-name="Capa 1" xmlns="http://www.w3.org/2000/svg" viewBox="0 0 256.75 451.12">
  <defs>
    <style>
      .cls-1, .cls-2 {
        fill: #f2d95d;
      }

      .cls-3 {
        stroke-width: .39px;
      }

      .cls-3, .cls-4, .cls-2, .cls-5, .cls-6, .cls-7 {
        stroke-miterlimit: 10;
      }

      .cls-3, .cls-5, .cls-6, .cls-7 {
        stroke: #000;
      }

      .cls-8 {
        fill: #1d1d1b;
      }

      .cls-9 {
        fill: #fff;
      }

      .cls-4 {
        stroke-width: 1.27px;
      }

      .cls-4, .cls-10 {
        fill: #8973b2;
      }

      .cls-4, .cls-10, .cls-2 {
        stroke: #1d1d1b;
      }

      .cls-10 {
        stroke-linejoin: round;
        stroke-width: 1.7px;
      }

      .cls-2 {
        stroke-width: .85px;
      }

      .cls-11 {
        fill: #29733c;
      }

      .cls-5 {
        fill: #b3569c;
        stroke-width: .29px;
      }

      .cls-6, .cls-7 {
        stroke-width: .58px;
      }

      .cls-7 {
        fill: #fdf9d7;
      }
    </style>
  </defs>
  <g>
    <path class="cls-4" d="M142,263.72v165.7h20.03c2.48-57.57,2.37-116.5,0-176.63l-20.03,10.93Z"/>
    <path class="cls-8" d="M161.58,379.7l-.16-2.59c-.02-.39-.15-.76-.43-1.05-.26-.26-.68-.45-1.05-.43s-.78.14-1.05.43-.46.65-.43,1.05l.16,2.59c.02.39.15.76.43,1.05.26.26.68.45,1.05.43s.78-.14,1.05-.43.46-.65.43-1.05h0Z"/>
    <path class="cls-8" d="M161.24,366.32c.03-.66-.07-1.36-.26-1.99s-.49-1.26-.89-1.8c-.09-.17-.22-.31-.38-.42-.14-.13-.31-.22-.5-.26-.35-.1-.83-.05-1.14.15s-.59.51-.68.88-.08.83.15,1.14.44.67.59,1.03l-.15-.35c.16.38.27.78.32,1.19l-.05-.39c.04.27.05.55.04.82-.01.37.17.79.43,1.05s.68.45,1.05.43c.83-.04,1.45-.65,1.48-1.48h0Z"/>
    <path class="cls-8" d="M150.06,347.06c-.42-1.22-.85-2.43-1.27-3.65-.13-.37-.34-.68-.68-.88-.32-.19-.78-.26-1.14-.15s-.7.34-.88.68-.28.77-.15,1.14c.42,1.22.85,2.43,1.27,3.65.13.37.34.68.68.88.32.19.78.26,1.14.15s.7-.34.88-.68.28-.77.15-1.14h0Z"/>
    <path class="cls-8" d="M161.56,348.37v-1.52c0-.2-.03-.39-.13-.57-.06-.18-.16-.34-.31-.48-.13-.14-.29-.25-.48-.31-.18-.09-.37-.14-.57-.13l-.39.05c-.25.07-.47.2-.65.38-.27.29-.43.65-.43,1.05v1.52c0,.2.03.39.13.57.06.18.16.34.31.48.13.14.29.25.48.31.18.09.37.14.57.13l.39-.05c.25-.07.47-.2.65-.38.27-.29.43-.65.43-1.05h0Z"/>
    <path class="cls-8" d="M154.86,339.76c.41-.42.82-.84,1.22-1.26.14-.13.25-.29.31-.48.09-.18.14-.37.13-.57,0-.2-.03-.39-.13-.57-.06-.18-.16-.34-.31-.48l-.3-.23c-.23-.13-.48-.2-.75-.2l-.39.05c-.25.07-.47.2-.65.38-.41.42-.82.84-1.22,1.26-.14.13-.25.29-.31.48-.09.18-.14.37-.13.57,0,.2.03.39.13.57.06.18.16.34.31.48l.3.23c.23.13.48.2.75.2l.39-.05c.25-.07.47-.2.65-.38h0Z"/>
    <path class="cls-8" d="M147.76,332.04l.65,1.21c.09.17.22.31.38.42.14.13.31.22.5.26.2.06.39.07.59.03.2,0,.38-.07.55-.18l.3-.23c.18-.18.31-.4.38-.65l.05-.39c0-.27-.07-.52-.2-.75l-.65-1.21c-.09-.17-.22-.31-.38-.42-.14-.13-.31-.22-.5-.26-.2-.06-.39-.07-.59-.03-.2,0-.38.07-.55.18l-.3.23c-.18.18-.31.4-.38.65l-.05.39c0,.27.07.52.2.75h0Z"/>
    <path class="cls-8" d="M158.34,325.46l-.32,1.52c-.06.2-.07.39-.03.59,0,.2.07.38.18.55.09.17.22.31.38.42.14.13.31.22.5.26l.39.05c.27,0,.52-.07.75-.2.31-.2.6-.51.68-.88l.32-1.52c.06-.2.07-.39.03-.59,0-.2-.07-.38-.18-.55-.09-.17-.22-.31-.38-.42-.14-.13-.31-.22-.5-.26l-.39-.05c-.27,0-.52.07-.75.2-.31.2-.6.51-.68.88h0Z"/>
    <path class="cls-8" d="M153.01,320.12c-.28-1.16-.56-2.33-.84-3.49-.18-.75-1.08-1.27-1.82-1.03-.78.25-1.23,1.01-1.03,1.82l.84,3.49c.18.75,1.08,1.27,1.82,1.03.78-.25,1.23-1.01,1.03-1.82h0Z"/>
    <path class="cls-8" d="M158.84,313.23c.48-.96.96-1.92,1.44-2.89.18-.36.26-.74.15-1.14-.09-.34-.36-.72-.68-.88-.34-.18-.76-.27-1.14-.15-.35.11-.71.34-.88.68-.48.96-.96,1.92-1.44,2.89-.18.36-.26.74-.15,1.14.09.34.36.72.68.88.34.18.76.27,1.14.15.35-.11.71-.34.88-.68h0Z"/>
    <path class="cls-8" d="M146.49,307.7l1.36,2.47c.18.32.53.58.88.68s.83.05,1.14-.15.59-.51.68-.88.05-.78-.15-1.14l-1.36-2.47c-.18-.32-.53-.58-.88-.68s-.83-.05-1.14.15-.59.51-.68.88-.05.78.15,1.14h0Z"/>
    <path class="cls-8" d="M157,300.52c-.11-.71-.21-1.42-.32-2.13-.05-.19-.13-.36-.26-.5-.1-.16-.24-.29-.42-.38-.17-.11-.35-.17-.55-.18-.2-.04-.39-.04-.59.03-.36.12-.7.34-.88.68l-.15.35c-.07.26-.07.52,0,.79.11.71.21,1.42.32,2.13.05.19.13.36.26.5.1.16.24.29.42.38.17.11.35.17.55.18.2.04.39.04.59-.03.36-.12.7-.34.88-.68l.15-.35c.07-.26.07-.52,0-.79h0Z"/>
    <path class="cls-8" d="M150.34,293.53l-.31-1.22c-.05-.19-.13-.36-.26-.5-.1-.16-.24-.29-.42-.38-.17-.11-.35-.17-.55-.18-.2-.04-.39-.04-.59.03l-.35.15c-.22.13-.4.31-.53.53l-.15.35c-.07.26-.07.52,0,.79l.31,1.22c.05.19.13.36.26.5.1.16.24.29.42.38.17.11.35.17.55.18.2.04.39.04.59-.03l.35-.15c.22-.13.4-.31.53-.53l.15-.35c.07-.26.07-.52,0-.79h0Z"/>
    <path class="cls-8" d="M148.06,380.46l-.16-2.43c-.03-.39-.15-.76-.43-1.05-.26-.26-.68-.45-1.05-.43s-.78.14-1.05.43-.46.66-.43,1.05l.16,2.43c.03.39.15.76.43,1.05.26.26.68.45,1.05.43s.78-.14,1.05-.43.46-.66.43-1.05h0Z"/>
    <g>
      <path class="cls-8" d="M163.2,412.6c-7.11,11.69-14.1,12.33-20.94,0v-35.65c6.11.83,13.47,1.02,21.4.07l-.46,35.58Z"/>
      <path class="cls-1" d="M163.85,391.77c-7,1.83-15.47,2.14-22.43.35v-4.62c6.8,1.27,15.38.82,22.53-.35l-.1,4.62Z"/>
      <path class="cls-1" d="M141.42,381.95c7.11,1.53,15.8,1.62,22.64,0l.08-4.62c-6.88,1.21-15.64,1.11-22.72,0v4.61Z"/>
    </g>
    <g>
      <g>
        <path class="cls-9" d="M141.03,441c-.53,9.89,6.84,6.07,6.84,6.07,4.06,4.51,10.55,1.29,10.55,1.29,5.27,3.89,11.46.9,11.46.9,6.05,3.56,10.49-.75,10.49-.75,8.37,3.48,12.16-1.96,12.16-1.96,1.06.36,2.05.49,2.97.46,3.48-.12,5.93-3.51,5.26-6.92l-1.25-6.35-.29.03c-.19.58-.44,1.13-.73,1.66-2.94,5.39-9.91,6.72-15.58,7.38-5.42.62-10.93.52-16.38.14l-25.48-1.96Z"/>
        <path d="M169.85,449.77c-1.18.5-6.62,2.52-11.48-.89-1.26.54-6.82,2.6-10.6-1.26-.85.37-3.23,1.2-5.06.02-1.6-1.03-2.31-3.27-2.13-6.67l.03-.47,25.95,1.99c6.39.45,11.56.41,16.3-.14,5.98-.69,12.47-2.09,15.23-7.14.28-.52.51-1.04.7-1.59l.09-.27,1-.12,1.34,6.76c.36,1.84-.1,3.74-1.26,5.2-1.09,1.38-2.71,2.21-4.43,2.27-.95.04-1.89-.1-2.83-.38-.94,1.08-4.9,4.88-12.23,1.96-.68.56-2.81,2.08-5.78,2.08-1.43,0-3.07-.36-4.82-1.35ZM180.54,448.09c7.91,3.28,11.46-1.59,11.61-1.8l.2-.28.33.11c.93.32,1.86.48,2.8.43,1.47-.05,2.8-.73,3.74-1.92,1-1.26,1.39-2.88,1.08-4.46l-1.04-5.28c-.11.26-.24.51-.38.76-2.96,5.42-9.71,6.89-15.93,7.61-4.79.55-10.03.6-16.47.14l-25.01-1.92c-.08,2.78.5,4.59,1.73,5.38,1.78,1.15,4.44-.19,4.46-.21l.31-.16.24.26c3.78,4.19,9.94,1.21,10,1.18l.25-.13.22.17c4.98,3.67,10.93.89,10.99.86l.22-.11.21.12c5.67,3.34,9.76-.51,9.94-.68l.22-.21.28.12Z"/>
      </g>
      <g>
        <path class="cls-11" d="M157.9,411.6c1.13-.64,4.72-2.66,8.02-.93,2.69,1.41,4.2,4.8,3.73,8.45,1.97-.37,7.75-1.27,8.25-1.32,4.89-.48,10.27-.57,14.93,1.3,6.41,2.57,8.8,10.52,5.64,16.33-2.93,5.38-9.91,6.71-15.57,7.37-5.42.63-10.93.53-16.38.15l-25.48-1.95.6-15.82s-6.29-3.9-2.53-9.69c.82-1.27,2.03-2.29,3.46-2.79,6.42-2.24,10.96,1.37,15.34-1.1Z"/>
        <path d="M166.48,443.41l-25.92-1.99.61-16.01c-.73-.51-2.97-2.27-3.57-4.94-.39-1.73,0-3.49,1.12-5.24.91-1.4,2.22-2.46,3.69-2.97,3.32-1.16,6.16-.8,8.67-.48,2.44.31,4.55.58,6.59-.58h0c1.22-.69,4.93-2.78,8.46-.93,2.72,1.43,4.29,4.71,4.03,8.3,2.38-.42,7.23-1.17,7.69-1.21,4.43-.43,10.15-.67,15.14,1.33,3.07,1.23,5.4,3.69,6.56,6.92,1.21,3.36.96,7.02-.69,10.05-2.95,5.42-9.7,6.89-15.92,7.6-2.62.3-5.37.45-8.39.45-2.49,0-5.16-.1-8.07-.31ZM177.95,418.27c-.46.04-6.23.94-8.21,1.31l-.62.11.08-.62c.45-3.45-.95-6.66-3.49-7.99-3.08-1.62-6.47.29-7.58.92h0c-2.31,1.31-4.67,1.01-7.16.69-2.52-.32-5.13-.65-8.25.44-1.28.45-2.42,1.37-3.22,2.61-.99,1.53-1.33,3.06-1,4.54.62,2.76,3.36,4.5,3.39,4.52l.23.14-.6,15.65,25.04,1.92c6.4.45,11.57.4,16.29-.14,5.99-.69,12.48-2.08,15.22-7.13,1.52-2.8,1.75-6.19.64-9.3-1.07-2.98-3.22-5.25-6.04-6.38-3-1.2-6.29-1.56-9.39-1.56-1.88,0-3.69.13-5.32.29Z"/>
      </g>
      <path d="M159.94,430.92c1.79-8.5,9.78-11.33,9.86-11.36l-.3-.87c-.09.03-8.57,3.03-10.46,12.04l.9.19Z"/>
      <path d="M168.34,432.09c1.23-10.48,12.11-13.86,12.22-13.9l-.26-.88c-.12.03-11.58,3.59-12.87,14.67l.91.11Z"/>
    </g>
    <path class="cls-8" d="M153.61,372.4v-3.04c0-.38-.17-.78-.43-1.05s-.68-.45-1.05-.43c-.8.04-1.48.65-1.48,1.48v3.04c0,.38.17.78.43,1.05s.68.45,1.05.43c.8-.04,1.48-.65,1.48-1.48h0Z"/>
    <path class="cls-8" d="M147.64,365.44l.64-2.74c.09-.38.05-.8-.15-1.14-.18-.31-.53-.6-.88-.68-.38-.09-.8-.07-1.14.15-.32.2-.59.51-.68.88-.21.91-.42,1.83-.64,2.74-.09.38-.05.8.15,1.14.18.31.53.6.88.68.38.09.8.07,1.14-.15.32-.2.59-.51.68-.88h0Z"/>
    <path class="cls-8" d="M154.83,358.8c.21-.71.42-1.42.64-2.13.11-.36.04-.82-.15-1.14-.18-.31-.53-.6-.88-.68-.38-.09-.8-.07-1.14.15s-.57.5-.68.88c-.21.71-.42,1.42-.64,2.13-.11.36-.04.82.15,1.14.18.31.53.6.88.68.38.09.8.07,1.14-.15s.57-.5.68-.88h0Z"/>
  </g>
  <g>
    <path class="cls-4" d="M131.06,263.72v165.7h-20.03c-2.48-57.57-2.37-116.5,0-176.63l20.03,10.93Z"/>
    <path class="cls-8" d="M114.59,295.43v5.31c0,.76.66,1.48,1.44,1.44s1.44-.63,1.44-1.44v-5.31c0-.76-.66-1.48-1.44-1.44s-1.44.63-1.44,1.44h0Z"/>
    <path class="cls-8" d="M121.77,305.63l-1.21,2.28c-.18.34-.25.74-.15,1.11.09.33.35.7.66.86.34.18.74.27,1.11.15.35-.11.68-.33.86-.66l1.21-2.28c.18-.34.25-.74.15-1.11-.09-.33-.35-.7-.66-.86-.34-.18-.74-.27-1.11-.15-.35.11-.68.33-.86.66h0Z"/>
    <path class="cls-8" d="M113.68,313.34l-.15,1.21c0,.2.03.38.12.56.06.18.16.33.3.46.13.14.29.24.46.3.17.09.36.13.56.12l.38-.05c.24-.07.46-.19.64-.37l.23-.29c.13-.23.2-.47.2-.73l.15-1.21c0-.2-.03-.38-.12-.56-.06-.18-.16-.33-.3-.46-.13-.14-.29-.24-.46-.3-.17-.09-.36-.13-.56-.12l-.38.05c-.24.07-.46.19-.64.37l-.23.29c-.13.23-.2.47-.2.73h0Z"/>
    <path class="cls-8" d="M123.85,318.35c-.05.71-.1,1.42-.15,2.12,0,.2.03.38.12.56.06.18.16.33.3.46.25.25.66.44,1.02.42s.76-.14,1.02-.42l.23-.29c.13-.23.2-.47.2-.73.05-.71.1-1.42.15-2.12,0-.2-.03-.38-.12-.56-.06-.18-.16-.33-.3-.46-.25-.25-.66-.44-1.02-.42s-.76.14-1.02.42l-.23.29c-.13.23-.2.47-.2.73h0Z"/>
    <path class="cls-8" d="M117.23,321.23l.12,3.04c.01.38.15.75.42,1.02.25.25.66.44,1.02.42s.76-.14,1.02-.42.44-.64.42-1.02c-.04-1.01-.08-2.02-.12-3.04-.01-.38-.15-.75-.42-1.02-.25-.25-.66-.44-1.02-.42s-.76.14-1.02.42-.44.64-.42,1.02h0Z"/>
    <path class="cls-8" d="M129.72,294.91c.1-.61.2-1.21.3-1.82.06-.19.07-.38.03-.58,0-.19-.07-.37-.17-.54-.09-.17-.21-.3-.37-.41-.14-.13-.3-.21-.49-.26-.37-.08-.78-.07-1.11.15l-.29.23c-.18.18-.3.39-.37.64-.1.61-.2,1.21-.3,1.82-.06.19-.07.38-.03.58,0,.19.07.37.17.54.09.17.21.3.37.41.14.13.3.21.49.26.37.08.78.07,1.11-.15l.29-.23c.18-.18.3-.39.37-.64h0Z"/>
    <path class="cls-8" d="M111.72,330.94c-.05.81-.1,1.62-.15,2.43-.02.36.18.77.42,1.02s.66.44,1.02.42.76-.14,1.02-.42l.23-.29c.13-.23.2-.47.2-.73.05-.81.1-1.62.15-2.43.02-.36-.18-.77-.42-1.02s-.66-.44-1.02-.42-.76.14-1.02.42l-.23.29c-.13.23-.2.47-.2.73h0Z"/>
    <path class="cls-8" d="M124.62,331.7c-.05.86-.1,1.72-.15,2.58-.02.36.18.77.42,1.02s.66.44,1.02.42.76-.14,1.02-.42.4-.62.42-1.02c.05-.86.1-1.72.15-2.58.02-.36-.18-.77-.42-1.02s-.66-.44-1.02-.42-.76.14-1.02.42-.4.62-.42,1.02h0Z"/>
    <path class="cls-8" d="M117.02,338.98v3.03c0,.37.16.76.42,1.02s.66.44,1.02.42c.78-.04,1.44-.63,1.44-1.44v-3.03c0-.37-.16-.76-.42-1.02s-.66-.44-1.02-.42c-.78.04-1.44.63-1.44,1.44h0Z"/>
    <path class="cls-8" d="M111.3,347.26l.61,2.73c.08.34.37.69.66.86s.77.26,1.11.15.69-.33.86-.66c.19-.35.23-.72.15-1.11l-.61-2.73c-.08-.34-.37-.69-.66-.86s-.77-.26-1.11-.15-.69.33-.86.66c-.19.35-.23.72-.15,1.11h0Z"/>
    <path class="cls-8" d="M124.3,345.05c0,.27,0,.55-.04.82l.05-.38c-.06.44-.18.87-.35,1.28l.15-.34c-.14.33-.32.64-.53.94s-.24.78-.15,1.11.35.7.66.86c.34.18.74.27,1.11.15l.34-.15c.22-.13.39-.3.52-.52.38-.54.66-1.16.85-1.79s.28-1.32.25-1.98c-.01-.38-.15-.75-.42-1.02-.25-.25-.66-.44-1.02-.42s-.76.14-1.02.42-.44.63-.42,1.02h0Z"/>
    <path class="cls-8" d="M118.28,353.33c.2.71.4,1.42.61,2.12.1.35.35.68.66.86.17.11.34.16.54.17.19.04.38.03.58-.03.35-.11.69-.33.86-.66s.25-.73.15-1.11l-.61-2.12c-.1-.35-.35-.68-.66-.86-.17-.11-.34-.16-.54-.17-.19-.04-.38-.03-.58.03-.35.11-.69.33-.86.66s-.25.73-.15,1.11h0Z"/>
    <path class="cls-8" d="M113.73,363.49c-.4,1.21-.81,2.43-1.21,3.64-.24.72.28,1.61,1.01,1.78.8.18,1.52-.24,1.78-1.01.4-1.21.81-2.43,1.21-3.64.24-.72-.28-1.61-1.01-1.78-.8-.18-1.52.24-1.78,1.01h0Z"/>
    <path class="cls-8" d="M124.6,362.96v1.52c0,.2.03.38.12.56.06.18.16.33.3.46.13.14.29.24.46.3.17.09.36.13.56.12l.38-.05c.24-.07.46-.19.64-.37.26-.28.42-.63.42-1.02v-1.52c0-.2-.03-.38-.12-.56-.06-.18-.16-.33-.3-.46-.13-.14-.29-.24-.46-.3-.17-.09-.36-.13-.56-.12l-.38.05c-.24.07-.46.19-.64.37-.26.28-.42.63-.42,1.02h0Z"/>
    <path class="cls-8" d="M119.05,373.61l1.17,1.26c.13.14.29.24.46.3.17.09.36.13.56.12.2,0,.38-.03.56-.12.18-.06.33-.16.46-.3l.23-.29c.13-.23.2-.47.2-.73l-.05-.38c-.07-.24-.19-.46-.37-.64l-1.17-1.26c-.13-.14-.29-.24-.46-.3-.17-.09-.36-.13-.56-.12-.2,0-.38.03-.56.12-.18.06-.33.16-.46.3l-.23.29c-.13.23-.2.47-.2.73l.05.38c.07.24.19.46.37.64h0Z"/>
    <path class="cls-8" d="M116.75,380.72c.21-.4.42-.8.62-1.21.11-.17.16-.34.17-.54.04-.19.03-.38-.03-.58-.04-.19-.13-.35-.26-.49-.1-.16-.24-.28-.41-.37l-.34-.15c-.26-.07-.51-.07-.77,0l-.34.15c-.22.13-.39.3-.52.52l-.62,1.21c-.11.17-.16.34-.17.54-.04.19-.03.38.03.58.04.19.13.35.26.49.1.16.24.28.41.37l.34.15c.26.07.51.07.77,0l.34-.15c.22-.13.39-.3.52-.52h0Z"/>
    <g>
      <path class="cls-8" d="M130.65,414.92c-7,13.61-13.98,13.31-20.94,0v-37.93c5.45,1.04,15,.9,20.94,0v37.93Z"/>
      <path class="cls-1" d="M109.2,391.96c7.03,1.74,15.52,1.94,22.45.06l-.07-4.62c-6.78,1.36-15.36,1.02-22.53-.06l.14,4.62Z"/>
      <path class="cls-1" d="M131.63,381.95c-7.11,1.53-15.8,1.62-22.64,0l-.08-4.62c6.88,1.21,15.64,1.11,22.72,0v4.61Z"/>
    </g>
    <g>
      <g>
        <path class="cls-9" d="M133.38,440.54c.53,9.89-6.84,6.07-6.84,6.07-4.06,4.51-10.55,1.29-10.55,1.29-5.27,3.89-11.46.9-11.46.9-6.05,3.56-10.49-.75-10.49-.75-8.37,3.48-12.16-1.96-12.16-1.96-1.06.36-2.05.49-2.97.46-3.48-.12-5.93-3.51-5.26-6.92l1.25-6.35.29.03c.19.58.44,1.13.73,1.66,2.94,5.39,9.91,6.72,15.58,7.38,5.42.62,10.93.52,16.38.14l25.48-1.96Z"/>
        <path d="M99.74,450.66c-2.97,0-5.1-1.52-5.78-2.08-7.33,2.92-11.29-.88-12.23-1.96-.93.29-1.88.42-2.83.38-1.72-.06-3.33-.88-4.43-2.27-1.17-1.47-1.63-3.37-1.26-5.2l1.34-6.76,1,.12.09.27c.19.55.41,1.07.7,1.59,2.76,5.06,9.25,6.45,15.23,7.14,4.73.55,9.91.59,16.3.14l25.95-1.99.03.47c.18,3.4-.54,5.64-2.13,6.67-1.83,1.18-4.21.35-5.06-.02-3.78,3.86-9.34,1.8-10.6,1.26-4.87,3.41-10.31,1.4-11.48.89-1.76.99-3.39,1.34-4.82,1.35ZM94.16,447.52l.22.21c.17.17,4.27,4.02,9.94.68l.21-.12.22.11c.06.03,6.01,2.81,10.99-.86l.22-.17.25.13c.06.03,6.23,3.01,10-1.18l.24-.26.31.16s2.68,1.36,4.46.21c1.23-.79,1.81-2.6,1.73-5.38l-25.01,1.92c-6.44.46-11.68.42-16.47-.14-6.22-.72-12.97-2.19-15.93-7.61-.14-.25-.26-.5-.38-.76l-1.04,5.28c-.31,1.57.08,3.2,1.08,4.46.94,1.19,2.27,1.87,3.74,1.92.94.05,1.88-.11,2.8-.43l.33-.11.2.28c.15.21,3.7,5.08,11.61,1.8l.28-.12Z"/>
      </g>
      <g>
        <path class="cls-11" d="M116.52,411.14c-1.13-.64-4.72-2.66-8.02-.93-2.69,1.41-4.2,4.8-3.73,8.45-1.97-.37-7.75-1.27-8.25-1.32-4.89-.48-10.27-.57-14.93,1.3-6.41,2.57-8.8,10.52-5.64,16.33,2.93,5.38,9.91,6.71,15.57,7.37,5.42.63,10.93.53,16.38.15l25.48-1.95-.6-15.82s6.29-3.9,2.53-9.69c-.82-1.27-2.03-2.29-3.46-2.79-6.42-2.24-10.96,1.37-15.34-1.1Z"/>
        <path d="M99.86,443.26c-3.02,0-5.77-.15-8.39-.45-6.22-.72-12.98-2.18-15.92-7.6-1.65-3.03-1.9-6.69-.69-10.05,1.16-3.23,3.49-5.69,6.56-6.92,5-2,10.72-1.76,15.14-1.33.46.04,5.31.8,7.69,1.21-.26-3.59,1.32-6.87,4.03-8.3,3.53-1.85,7.24.24,8.46.93h0c2.05,1.16,4.16.89,6.59.58,2.5-.32,5.34-.68,8.67.48,1.47.52,2.78,1.57,3.69,2.97,1.13,1.75,1.51,3.51,1.12,5.24-.6,2.68-2.85,4.43-3.57,4.94l.61,16.01-25.92,1.99c-2.92.2-5.59.31-8.07.31ZM91.15,417.52c-3.1,0-6.4.36-9.39,1.56-2.82,1.13-4.97,3.4-6.04,6.38-1.12,3.11-.89,6.5.64,9.3,2.75,5.05,9.24,6.44,15.22,7.13,4.72.54,9.9.59,16.29.14l25.04-1.92-.6-15.65.23-.14s2.78-1.76,3.39-4.52c.33-1.48,0-3-1-4.54-.8-1.23-1.94-2.16-3.22-2.61-3.12-1.09-5.73-.76-8.25-.44-2.49.32-4.85.62-7.16-.69h0c-1.11-.63-4.5-2.54-7.58-.92-2.53,1.33-3.94,4.54-3.49,7.99l.08.62-.62-.11c-1.98-.37-7.76-1.27-8.21-1.31-1.63-.16-3.44-.29-5.32-.29Z"/>
      </g>
      <path d="M114.48,430.47c-1.79-8.5-9.78-11.33-9.86-11.36l.3-.87c.09.03,8.57,3.03,10.46,12.04l-.9.19Z"/>
      <path d="M106.08,431.64c-1.23-10.48-12.11-13.86-12.22-13.9l.26-.88c.12.03,11.58,3.59,12.87,14.67l-.91.11Z"/>
    </g>
  </g>
  <path class="cls-10" d="M125.29,47.95c-13.41-1.25-25.58,10.48-35.32,29.84l-1.95,4.04c-24.11,52.23-31.71,152.27-2.79,210.11-1.1-15.06.74-25.18,5.8-27.37.93-.4,2-.18,2.71.55,3.71,3.79,3.32,13.2,2.42,19.08,3.94-4.17,5.86-11.47,5.93-21.66,0-.37.52-.46.64-.11l8.91,25.87c1.67-7,2.18-14.98,1.88-23.66-.02-.43.53-.62.79-.28,4.74,6.36,8.34,13.71,9.63,23.02,2.35-5.64,3.16-12.27,2.8-19.66-.02-.44.51-.67.81-.34,3.88,4.35,7.52,11.36,10.96,21.83,1.6-6.7,1.99-14.1,1.42-22.09-.02-.25.28-.4.46-.24,6.66,5.8,8.58,15.34,4.49,29.61,9.21-7.88,13.08-18.23,6.18-33.53-.11-.25.22-.47.4-.26,5.73,6.55,10.88,13.38,8.44,23.77,3.95-4.79,6.17-11.45,6.73-19.91,0-.13.19-.13.2,0,.62,8.45,3.85,17.94,9.92,28.56-2.31-9.62-1.75-17.36.1-24.24.08-.3.5-.27.56.03,2.4,14.28,8.84,24.81,18.46,32.41-3.19-146.13-9.56-250.83-70.56-255.38Z"/>
  <ellipse class="cls-9" cx="115.5" cy="71.01" rx="14.19" ry="19.57" transform="translate(-6.69 12.26) rotate(-5.9)"/>
  <ellipse class="cls-9" cx="144.32" cy="70.64" rx="13.23" ry="18.22" transform="translate(-15.99 81.63) rotate(-30)"/>
  <path class="cls-8" d="M112.69,41.37c-15.11-.18-22.87,6.67-25.09,18.82-3.44-6.43-2.91-12.59.59-18.55,1.4-2.39,3.63-4.23,6.27-5.1,6.28-2.06,12.36-.49,18.23,4.84Z"/>
  <path class="cls-8" d="M165.07,60.82c-3.76-14.63-12.38-20.35-24.69-19.34,5.32-5,11.41-6.08,18.07-4.25,2.68.73,5.03,2.41,6.55,4.73,3.62,5.53,3.69,11.81.07,18.86Z"/>
  <path class="cls-2" d="M117.81,23.88c-13.4,0-23.33-4.19-23.66-10.27-.36-6.63,10.83-12.25,26.04-13.08,6.91-.38,13.5.36,18.55,2.09,5.46,1.87,8.57,4.74,8.76,8.09.18,3.35-2.6,6.54-7.82,8.99-4.82,2.26-11.29,3.71-18.21,4.09-1.24.07-2.45.1-3.64.1ZM123.7,3.31c-1.11,0-2.23.03-3.36.09-14.02.76-23.53,5.9-23.31,10.04.23,4.14,10.25,8.21,24.26,7.45,6.56-.36,12.65-1.71,17.14-3.82,4.03-1.89,6.28-4.16,6.17-6.22h0c-.11-2.06-2.59-4.07-6.81-5.51-3.89-1.33-8.8-2.03-14.09-2.03Z"/>
  <path class="cls-4" d="M71.2,77.79c-.74-2.48-3.04-4.29-5.75-4.29-3.31,0-6,2.69-6,6s2.69,6,6,6c2.49,0,4.63-1.52,5.54-3.68h17.03c.64-1.38,1.29-2.73,1.95-4.04h-18.76Z"/>
  <path class="cls-4" d="M186,77.79c.74-2.48,3.04-4.29,5.75-4.29,3.31,0,6,2.69,6,6,0,3.31-2.69,6-6,6-2.49,0-4.63-1.52-5.54-3.68h-17.03c-.64-1.38-1.29-2.73-1.95-4.04h18.76Z"/>
  <circle cx="115.5" cy="71.01" r="3.06"/>
  <circle cx="142.41" cy="71.21" r="3.06"/>
  <path class="cls-6" d="M98.43,104.39h62.52c15.62,68.29,21.52,125.96-15.07,137.23-5.76,1.77-11.86,2.05-17.82,1.23-39.99-5.54-48.29-53.82-29.63-138.46Z"/>
  <polygon class="cls-7" points="102.17 104.49 105.61 137.68 116.94 104.39 102.17 104.49"/>
  <path class="cls-5" d="M100.61,226.44c10.05-10.47,19.52-11.66,30.3-.78,11.87-10.77,23.17-10.03,32.5,3.43-5.98,7.81-13.85,14.01-30.45,14.09-14.41-.24-25.62-6.83-32.35-16.74Z"/>
  <ellipse class="cls-6" cx="79.77" cy="142.18" rx="11.38" ry="5.77" transform="translate(-66.33 214.52) rotate(-87.05)"/>
  <ellipse class="cls-3" cx="74.09" cy="185.57" rx="3.93" ry="7.49" transform="translate(-14.9 6.67) rotate(-4.68)"/>
  <ellipse class="cls-3" cx="179.08" cy="128.37" rx="3.93" ry="7.49" transform="translate(-29.74 58.05) rotate(-17.02)"/>
  <path class="cls-3" d="M76.73,215.16c-3.58,0-6.86,1.3-9.4,3.44.45,7.48,1.31,15.6,2.79,24.1,1.99,1.01,4.23,1.59,6.62,1.59,8.05,0,14.57-6.52,14.57-14.57s-6.52-14.57-14.57-14.57Z"/>
  <path class="cls-3" d="M189.76,174.27c-1.1-.81-2.46-1.29-3.93-1.29-3.69,0-6.68,2.99-6.68,6.68s2.99,6.68,6.68,6.68c1.87,0,3.56-.77,4.77-2.01l-.84-10.05Z"/>
  <circle class="cls-3" cx="183.41" cy="238.53" r="10.32"/>
  <path class="cls-4" d="M75.9,117.22C34.75,152.53-7.79,227.15,2.08,255.71c.22.64.99.92,1.57.58,8.2-4.83,11.32-15.17,14.2-26.25-.54,7.94,1.21,14.8,7.96,19.28,1.11.74,2.63.31,3.2-.9,3.99-8.56,1.12-18.55-6.15-29.45,10.62-28.68,17.6-47.57,47.04-73.06,1.57-9.73,3.62-19.27,5.99-28.68Z"/>
  <path class="cls-4" d="M180.85,117.22c41.15,35.31,83.69,109.94,73.82,138.49-.22.64-.99.92-1.57.58-8.2-4.83-11.32-15.17-14.2-26.25.54,7.94-1.21,14.8-7.96,19.28-1.11.74-2.63.31-3.2-.9-3.99-8.56-1.12-18.55,6.15-29.45-10.62-28.68-17.96-47.39-47.4-72.89-1.57-9.73-3.26-19.45-5.64-28.86Z"/>
</svg>